<?xml version="1.0" standalone="no"?>
<!DOCTYPE svg PUBLIC "-//W3C//DTD SVG 20010904//EN"
 "http://www.w3.org/TR/2001/REC-SVG-20010904/DTD/svg10.dtd">
<svg version="1.0" xmlns="http://www.w3.org/2000/svg"
 width="512.000000pt" height="512.000000pt" viewBox="0 0 512.000000 512.000000"
 preserveAspectRatio="xMidYMid meet">
<metadata>
Created by potrace 1.14, written by Peter Selinger 2001-2017
</metadata>
<g transform="translate(0.000000,512.000000) scale(0.100000,-0.100000)"
fill="#000000" stroke="none">
<path d="M3335 4499 c-209 -77 -457 -167 -551 -202 l-171 -62 119 -330 c66
-182 145 -397 175 -480 30 -82 72 -197 93 -255 87 -243 732 -2017 740 -2035 5
-11 60 -162 123 -335 104 -288 116 -315 136 -313 12 2 232 80 489 174 257 93
501 182 544 197 l76 26 -33 90 c-18 50 -90 249 -159 441 -70 193 -131 359
-136 370 -5 11 -41 110 -80 220 -39 110 -78 218 -86 239 -9 22 -141 384 -294
805 -153 421 -285 784 -293 806 -16 41 -121 329 -187 515 -85 237 -97 265
-111 267 -8 0 -185 -61 -394 -138z m530 -781 c76 -211 144 -399 151 -418 7
-19 78 -215 158 -434 80 -220 145 -401 143 -402 -15 -15 -741 -274 -748 -266
-5 5 -437 1190 -566 1552 -9 25 -20 50 -24 55 -4 6 -5 16 -1 22 4 6 97 43 207
83 110 39 209 75 220 80 48 21 291 108 305 109 11 1 52 -100 155 -381z m501
-2016 c84 -43 144 -148 137 -239 -6 -84 -76 -183 -153 -215 -81 -34 -203 -11
-265 49 -56 54 -79 108 -78 183 0 117 65 203 183 241 40 13 133 3 176 -19z"/>
<path d="M20 4470 c-5 -3 -8 -903 -7 -2000 l2 -1995 593 0 c327 0 596 3 598 7
4 5 6 2335 4 3663 l0 330 -591 0 c-325 0 -595 -2 -599 -5z m990 -535 c1 -51 0
-1453 0 -1600 l0 -110 -392 1 c-216 1 -396 2 -400 3 -7 1 -11 1729 -4 1740 2
3 182 6 400 6 l396 0 0 -40z m-290 -2385 c45 -23 94 -70 118 -114 23 -43 23
-179 0 -221 -89 -161 -315 -184 -421 -43 -40 54 -48 76 -52 144 -2 53 2 74 22
114 62 126 215 180 333 120z"/>
<path d="M1314 4469 c-2 -3 -2 -903 -1 -2000 l2 -1994 593 0 c327 0 596 3 599
8 3 5 6 3524 3 3942 l0 50 -596 0 c-328 0 -598 -3 -600 -6z m996 -504 c1 -5 1
-397 1 -869 0 -557 -3 -861 -10 -865 -5 -3 -184 -6 -398 -6 l-388 0 -2 865
c-2 476 -1 870 1 875 5 14 796 14 796 0z m-283 -2421 c92 -44 140 -135 130
-245 -6 -65 -23 -103 -69 -148 -90 -91 -241 -97 -337 -14 -113 97 -115 275 -4
373 81 71 179 83 280 34z"/>
</g>
</svg>
